<svg width="1600" height="900" viewBox="0 0 1600 900" fill="none" xmlns="http://www.w3.org/2000/svg">
  <rect width="1600" height="900" rx="24" fill="#0A101B"/>
  <rect x="8" y="8" width="150" height="884" rx="14" fill="#0F1826" stroke="#223246"/>
  <rect x="18" y="18" width="130" height="34" rx="10" fill="#101F31"/>
  <rect x="28" y="25" width="18" height="18" rx="5" fill="#0F1B2D" stroke="#29C3FF"/>
  <path d="M37 29L42 31V36C42 39.4 39.9 42.5 37 43.6C34.1 42.5 32 39.4 32 36V31L37 29Z" stroke="#29C3FF" stroke-width="1.6" stroke-linejoin="round"/>
  <text x="54" y="38" fill="#29C3FF" font-family="Verdana, Geneva, sans-serif" font-size="13" letter-spacing="4">AEGIS</text>

  <g fill="#8394AA" font-family="Verdana, Geneva, sans-serif" font-size="12">
    <text x="28" y="97">DNS</text>
    <text x="28" y="131">CA &amp; Certificates</text>
    <text x="28" y="165">Proxy</text>
    <text x="28" y="199" fill="#E6F4FF">Docker Discovery</text>
    <text x="28" y="233">Mappings</text>
    <text x="28" y="267">API Keys</text>
    <text x="28" y="301">Settings</text>
    <text x="28" y="335">System</text>
  </g>
  <rect x="16" y="179" width="134" height="34" rx="10" fill="#253142"/>

  <rect x="166" y="8" width="1426" height="884" rx="14" fill="#101925" stroke="#223246"/>
  <text x="188" y="36" fill="#29C3FF" font-family="Verdana, Geneva, sans-serif" font-size="11" letter-spacing="3">AEGIS CONTROL PLANE</text>
  <text x="188" y="66" fill="#E6F4FF" font-family="Verdana, Geneva, sans-serif" font-size="30" font-weight="700">Docker Discovery</text>
  <text x="188" y="90" fill="#7F90A6" font-family="Verdana, Geneva, sans-serif" font-size="12">Register Docker engines, inspect running containers, and map services into Aegis routes.</text>

  <rect x="1410" y="52" width="72" height="28" rx="9" fill="#2A3442"/>
  <text x="1431" y="70" fill="#E6F4FF" font-family="Verdana, Geneva, sans-serif" font-size="12">Refresh</text>
  <rect x="1490" y="52" width="84" height="28" rx="9" fill="#14B8F5"/>
  <text x="1511" y="70" fill="#08131D" font-family="Verdana, Geneva, sans-serif" font-size="12" font-weight="700">Add env</text>

  <g>
    <rect x="188" y="116" width="310" height="76" rx="12" fill="#0F1823" stroke="#203041"/>
    <rect x="514" y="116" width="310" height="76" rx="12" fill="#0F1823" stroke="#203041"/>
    <rect x="840" y="116" width="310" height="76" rx="12" fill="#0F1823" stroke="#203041"/>
    <rect x="1166" y="116" width="394" height="76" rx="12" fill="#0F1823" stroke="#203041"/>
    <g fill="#E6F4FF" font-family="Verdana, Geneva, sans-serif">
      <text x="233" y="158" font-size="30" font-weight="700">1</text>
      <text x="559" y="158" font-size="30" font-weight="700">0</text>
      <text x="885" y="158" font-size="30" font-weight="700">0</text>
      <text x="1211" y="158" font-size="30" font-weight="700">n/a</text>
    </g>
    <g fill="#7F90A6" font-family="Verdana, Geneva, sans-serif" font-size="12">
      <text x="233" y="140">Environments</text>
      <text x="559" y="140">Containers</text>
      <text x="885" y="140">Mappings</text>
      <text x="1211" y="140">Public IP</text>
      <text x="233" y="174">1 enabled</text>
      <text x="559" y="174">choose an environment</text>
      <text x="885" y="174">container ports linked to routes</text>
      <text x="1211" y="174">used when binding published ports</text>
    </g>
  </g>

  <rect x="188" y="210" width="1372" height="290" rx="14" fill="#0F1823" stroke="#203041"/>
  <text x="206" y="236" fill="#7F90A6" font-family="Verdana, Geneva, sans-serif" font-size="11" letter-spacing="1.6">DOCKER</text>
  <text x="206" y="264" fill="#E6F4FF" font-family="Verdana, Geneva, sans-serif" font-size="24" font-weight="700">Docker environments</text>
  <text x="206" y="286" fill="#7F90A6" font-family="Verdana, Geneva, sans-serif" font-size="12">Socket-local and remote engines registered in Aegis, with quick health and resource summaries.</text>

  <rect x="206" y="314" width="490" height="182" rx="12" fill="#101D2A" stroke="#25405B"/>
  <rect x="220" y="326" width="44" height="16" rx="8" fill="#0E2B22"/>
  <text x="230" y="338" fill="#39D98A" font-family="Verdana, Geneva, sans-serif" font-size="10">Active</text>
  <rect x="270" y="326" width="70" height="16" rx="8" fill="#0D2438"/>
  <text x="280" y="338" fill="#59C7FF" font-family="Verdana, Geneva, sans-serif" font-size="10">Local socket</text>

  <text x="220" y="366" fill="#E6F4FF" font-family="Verdana, Geneva, sans-serif" font-size="22" font-weight="700">Local docker</text>
  <text x="220" y="388" fill="#7F90A6" font-family="Verdana, Geneva, sans-serif" font-size="12">/var/run/docker.sock</text>
  <text x="220" y="406" fill="#7F90A6" font-family="Verdana, Geneva, sans-serif" font-size="12">Public IP: 192.168.1.168</text>

  <rect x="220" y="424" width="430" height="52" rx="10" fill="#0F1823" stroke="#223246"/>
  <circle cx="246" cy="450" r="18" fill="#1E2A39" stroke="#4A5C72"/>
  <text x="240" y="455" fill="#E6F4FF" font-family="Verdana, Geneva, sans-serif" font-size="14" font-weight="700">3</text>
  <g fill="#7F90A6" font-family="Verdana, Geneva, sans-serif" font-size="12">
    <text x="278" y="441">Running</text>
    <text x="278" y="457">Restarting</text>
    <text x="278" y="473">Stopped</text>
    <text x="636" y="441">0</text>
    <text x="636" y="457">0</text>
    <text x="636" y="473">3</text>
  </g>

  <rect x="220" y="486" width="120" height="42" rx="9" fill="#0F1823" stroke="#223246"/>
  <rect x="350" y="486" width="120" height="42" rx="9" fill="#0F1823" stroke="#223246"/>
  <rect x="480" y="486" width="120" height="42" rx="9" fill="#0F1823" stroke="#223246"/>
  <g font-family="Verdana, Geneva, sans-serif">
    <text x="232" y="503" fill="#7F90A6" font-size="10">CPU</text>
    <text x="232" y="520" fill="#59C7FF" font-size="18" font-weight="700">0.0%</text>
    <text x="362" y="503" fill="#7F90A6" font-size="10">RAM</text>
    <text x="362" y="520" fill="#C3A6FF" font-size="18" font-weight="700">0 B</text>
    <text x="492" y="503" fill="#7F90A6" font-size="10">NET I/O</text>
    <text x="492" y="520" fill="#59C7FF" font-size="18" font-weight="700">0 B</text>
  </g>
</svg>
